<svg width="406" height="400" viewBox="0 0 406 400" fill="none" xmlns="http://www.w3.org/2000/svg">
<g clip-path="url(#clip0)">
<path d="M269.533 26.9286C225.562 47.4015 177.806 70.3813 119.247 99.2549C94.5419 111.443 65.9052 125.804 38.685 141.997C20.3972 152.876 7.72468 169.836 2.99442 189.754C-1.64721 209.32 1.8261 229.749 12.7728 247.282C23.4137 264.311 39.4043 274.027 53.6413 281.283L86.7541 298.214C123.985 317.27 162.483 336.972 200.626 355.821L201.503 356.254C228.344 369.52 256.101 383.238 284.659 393.788C328.278 409.899 376.069 388.933 395.83 345.025C410.951 311.441 406.707 276.676 383.179 241.687C376.819 232.211 369.359 223.502 361.456 214.282C359.374 211.847 357.237 209.355 355.057 206.773C356.412 205.754 357.752 204.566 358.931 203.126C361.395 200.116 363.923 197.143 366.457 194.166C374.393 184.841 382.603 175.195 388.963 164.303C399.725 145.883 405.126 127.415 405.157 109.388C405.188 91.5288 399.948 74.1069 389.437 57.6215C363.994 17.7131 315.81 5.37743 269.533 26.9286ZM288.828 207.482C266.572 223.555 244.939 237.791 218.41 239.352C203.331 240.24 193.747 235.242 188.254 223.624C185.509 217.822 184.141 212.188 184.151 206.743C184.164 199.375 186.698 192.356 191.744 185.755C199.61 175.458 210.782 172.74 229.093 176.66C251.426 181.442 270.864 193.994 288.828 207.482ZM334.028 63.3908C346.784 69.3933 356.352 81.1192 360.287 95.5721C361.106 98.5908 361.431 101.986 361.77 105.579C361.929 107.234 362.089 108.892 362.29 110.536C361.833 130.62 352.097 146.211 337.631 163.39C336.374 164.891 335.089 166.536 333.79 168.213C330.718 172.167 326.086 178.129 323.352 178.631C321.379 178.646 315.926 174.292 312.992 171.95C310.973 170.335 308.982 168.749 307.061 167.419C288.279 154.379 262.703 138.662 231.402 132.84C191.249 125.358 153.804 148.813 144.307 187.402C134.277 228.137 155.738 268.707 193.18 279.759C215.235 286.266 238.602 283.948 260.751 273.046C281.37 262.905 300.894 250.107 319.91 237.647C321.483 236.614 322.399 236.169 322.886 235.976C323.097 236.188 323.399 236.534 323.793 237.074C327.371 241.964 331.188 246.736 335.013 251.507C343.336 261.897 351.196 271.71 356.595 282.713C362.991 295.75 364.016 310 359.492 322.845C354.968 335.676 345.425 345.916 332.613 351.68C319.075 357.777 305.266 357.498 291.56 350.857C232.357 322.172 171.954 292.657 106.902 260.632C97.9302 256.215 88.9275 251.29 80.2205 246.528C74.8498 243.592 69.4793 240.651 64.0696 237.801C51.3253 231.083 43.7644 219.529 43.7863 206.845C43.7865 206.748 43.7867 206.648 43.7868 206.547C43.9247 194.093 51.5002 182.922 64.052 176.672L87.6185 164.917C154.739 131.441 224.144 96.8218 292.965 64.0712C306.595 57.5859 321.18 57.3449 334.028 63.3908Z" fill="#1C71DA"/>
<path d="M275.519 40.3315C231.647 60.7577 183.983 83.6946 125.522 112.518C101.064 124.584 72.7238 138.794 45.948 154.726C31.0877 163.565 20.8129 177.238 17.0194 193.224C13.3041 208.854 16.122 225.247 24.9397 239.363C33.6871 253.36 47.6157 261.749 60.0928 268.107L93.2197 285.045C130.408 304.079 168.86 323.76 206.916 342.562L207.789 342.995C234.299 356.099 261.718 369.646 289.572 379.937C326.073 393.417 366.115 375.768 382.722 338.874C395.75 309.929 392.009 280.861 371.285 250.02C365.397 241.257 358.534 233.251 350.596 223.977C346.771 219.518 342.791 214.861 338.678 209.844L333.623 203.679L340.084 199.08C341.121 198.337 342.257 197.634 343.421 196.924C345.177 195.856 346.983 194.747 347.858 193.681C350.385 190.596 352.976 187.555 355.567 184.506C363.432 175.259 370.866 166.526 376.576 156.758C395.252 124.802 395.51 94.1444 377.346 65.656C355.621 31.5837 315.655 21.643 275.519 40.3315ZM288.828 207.482C266.572 223.555 244.939 237.791 218.41 239.352C203.331 240.24 193.747 235.242 188.254 223.624C185.509 217.822 184.141 212.188 184.151 206.743C184.164 199.375 186.698 192.356 191.744 185.755C199.61 175.458 210.782 172.741 229.093 176.66C251.426 181.442 270.864 193.994 288.828 207.482ZM334.028 63.3909C346.784 69.3934 356.352 81.1193 360.287 95.5721C361.106 98.5908 361.431 101.986 361.77 105.579C361.929 107.234 362.089 108.892 362.29 110.536C361.833 130.62 352.097 146.211 337.631 163.39C336.374 164.891 335.089 166.536 333.79 168.213C330.718 172.167 326.086 178.129 323.352 178.631C321.379 178.646 315.926 174.292 312.992 171.95C310.973 170.335 308.982 168.749 307.061 167.419C288.279 154.379 262.703 138.662 231.402 132.84C191.249 125.359 153.804 148.813 144.307 187.402C134.277 228.137 155.738 268.707 193.18 279.759C215.235 286.266 238.602 283.948 260.751 273.046C281.37 262.905 300.894 250.107 319.91 237.647C321.483 236.614 322.399 236.169 322.886 235.976C323.097 236.188 323.399 236.534 323.793 237.074C327.371 241.964 331.188 246.736 335.013 251.507C343.336 261.897 351.196 271.71 356.595 282.713C362.991 295.75 364.016 310 359.492 322.845C354.968 335.676 345.425 345.916 332.613 351.68C319.075 357.777 305.266 357.498 291.56 350.857C232.357 322.172 171.954 292.657 106.902 260.632C97.9302 256.215 88.9275 251.29 80.2205 246.528C74.8498 243.592 69.4793 240.651 64.0697 237.801C51.3253 231.083 43.7644 219.529 43.7863 206.845C43.7865 206.748 43.7867 206.648 43.7868 206.547C43.9247 194.093 51.5002 182.922 64.052 176.672L87.6185 164.918C154.739 131.441 224.144 96.8218 292.965 64.0713C306.595 57.586 321.18 57.3449 334.028 63.3909Z" fill="#D0E8FF"/>
<path d="M180.366 176.694C168.104 192.73 166.336 211.179 175.258 230.032C180.849 241.844 193.014 255.603 219.244 254.055C252.396 252.106 277.178 234.063 303.428 214.959L313.226 207.826L305.423 201.771C283.963 185.123 260.622 168.36 232.049 162.244C217.055 159.032 195.386 157.038 180.366 176.694ZM229.093 176.66C251.426 181.442 270.864 193.994 288.828 207.482C266.572 223.555 244.939 237.791 218.41 239.352C203.331 240.24 193.747 235.242 188.254 223.624C185.509 217.822 184.141 212.188 184.151 206.743C184.164 199.375 186.698 192.356 191.744 185.755C199.61 175.458 210.782 172.74 229.093 176.66Z" fill="#1C71DA"/>
<path d="M286.873 50.7189C217.932 83.5267 148.464 118.175 81.2865 151.683L57.7237 163.435C40.1652 172.183 29.5623 188.236 29.3583 206.382C29.4108 224.942 39.6544 241.51 57.4456 250.887C62.7954 253.709 68.0991 256.609 73.4064 259.513C82.2471 264.348 91.3871 269.348 100.637 273.899C165.714 305.938 226.141 335.464 285.373 364.167C302.789 372.605 321.134 372.946 338.438 365.161C354.895 357.753 367.191 344.497 373.068 327.835C375.489 320.963 376.699 313.805 376.712 306.598C376.729 296.309 374.31 285.919 369.501 276.111C363.378 263.647 354.633 252.735 346.182 242.18C342.498 237.578 338.807 232.975 335.349 228.258C326.338 215.933 316.005 222.701 311.977 225.337C293.462 237.475 274.319 250.025 254.49 259.78C235.324 269.208 216.044 271.171 197.189 265.611C167.254 256.77 150.176 223.986 158.3 190.994C165.921 160.029 196.235 141.259 228.813 147.328C251.161 151.488 272.795 161.44 298.945 179.596C300.613 180.753 302.343 182.145 304.095 183.546C310.491 188.657 317.745 194.449 325.567 193.185L325.582 193.185C333.855 191.837 339.829 184.148 345.097 177.363C346.276 175.844 347.434 174.354 348.578 172.993C362.973 155.896 376.344 136.46 376.728 110.237L376.736 109.69L376.666 109.151C376.45 107.5 376.291 105.831 376.132 104.162C375.752 100.094 375.35 95.8856 374.188 91.6256C369.119 72.9993 356.689 57.8304 340.075 50.0121C323.306 42.1259 304.417 42.3774 286.873 50.7189ZM334.028 63.3908C346.784 69.3933 356.352 81.1193 360.287 95.5721C361.106 98.5908 361.431 101.986 361.77 105.579C361.929 107.234 362.089 108.892 362.29 110.536C361.833 130.62 352.097 146.211 337.631 163.39C336.374 164.891 335.089 166.536 333.79 168.213C330.718 172.167 326.086 178.129 323.352 178.631C321.379 178.646 315.926 174.292 312.992 171.95C310.973 170.335 308.982 168.749 307.061 167.419C288.279 154.379 262.703 138.662 231.402 132.84C191.249 125.358 153.804 148.813 144.307 187.402C134.277 228.137 155.738 268.707 193.18 279.759C215.235 286.266 238.602 283.948 260.751 273.046C281.37 262.905 300.894 250.107 319.91 237.647C321.483 236.614 322.399 236.169 322.886 235.976C323.097 236.188 323.399 236.534 323.793 237.074C327.371 241.964 331.188 246.736 335.013 251.507C343.336 261.897 351.196 271.71 356.595 282.713C362.991 295.75 364.016 310 359.492 322.845C354.968 335.676 345.425 345.916 332.613 351.68C319.075 357.777 305.266 357.498 291.56 350.857C232.357 322.172 171.954 292.657 106.902 260.632C97.9302 256.215 88.9275 251.29 80.2205 246.528C74.8498 243.592 69.4793 240.651 64.0696 237.801C51.3253 231.083 43.7644 219.529 43.7863 206.845C43.7865 206.748 43.7866 206.648 43.7868 206.547C43.9247 194.093 51.5002 182.922 64.052 176.672L87.6184 164.917C154.739 131.441 224.144 96.8218 292.965 64.0713C306.595 57.5859 321.18 57.3449 334.028 63.3908Z" fill="#A0EEFF"/>
<path d="M130.816 220.188C130.812 222.105 130.092 224.02 128.657 225.48C125.785 228.4 121.138 228.392 118.276 225.462L92.3694 198.938C89.509 196.008 89.5172 191.266 92.3877 188.346C95.2601 185.426 99.9069 185.434 102.769 188.364L128.675 214.888C130.106 216.353 130.819 218.27 130.816 220.188Z" fill="#1C71DA"/>
<path d="M129.192 193.888C129.188 195.805 128.499 197.72 127.124 199.181L102.224 225.617C99.4731 228.536 95.0222 228.529 92.2822 225.599C89.5439 222.668 89.5521 217.927 92.3005 215.007L117.2 188.571C119.951 185.651 124.402 185.659 127.142 188.588C128.512 190.053 129.195 191.972 129.192 193.888Z" fill="#1C71DA"/>
<path d="M326.453 308.287C326.428 322.501 315.081 334.045 301.157 334.021C287.234 333.997 275.926 322.414 275.951 308.2C275.975 293.986 287.323 282.442 301.247 282.466C315.17 282.49 326.478 294.073 326.453 308.287ZM290.38 308.225C290.37 314.317 295.215 319.281 301.183 319.291C307.15 319.301 312.013 314.354 312.024 308.262C312.034 302.17 307.189 297.206 301.221 297.196C295.253 297.186 290.391 302.133 290.38 308.225Z" fill="#D0E8FF"/>
<path d="M327.883 105.591C327.88 107.476 327.172 109.359 325.761 110.795L305.319 131.591C302.498 134.462 297.929 134.454 295.117 131.573L274.748 110.707C271.935 107.825 271.943 103.162 274.766 100.292L295.207 79.4948C296.562 78.1153 298.399 77.3425 300.312 77.3458C302.225 77.3491 304.059 78.1282 305.409 79.5124L325.779 100.38C327.185 101.82 327.887 103.706 327.883 105.591ZM300.245 115.958L310.465 105.561L300.281 95.1265L290.061 105.525L300.245 115.958Z" fill="#A0EEFF"/>
<path d="M47.3606 124.211L53.2954 119.979C54.4998 121.4 55.9058 122.381 57.5134 122.923C59.1131 123.449 60.7951 123.274 62.5594 122.399C64.3398 121.516 65.5003 120.411 66.0411 119.083C66.5979 117.748 66.5382 116.399 65.862 115.035C65.4961 114.298 65.0136 113.708 64.4145 113.265C63.8075 112.807 63.1759 112.501 62.5199 112.346C61.8719 112.168 61.0675 112.077 60.1067 112.074C59.154 112.047 58.2692 112.076 57.4522 112.162C56.6513 112.239 55.6461 112.328 54.4368 112.428C53.2274 112.528 52.1783 112.589 51.2895 112.61C50.0964 112.622 49.0677 112.583 48.2033 112.492C47.3309 112.385 46.3828 112.166 45.359 111.834C44.3433 111.479 43.4203 110.907 42.5902 110.12C41.76 109.333 41.0387 108.321 40.4261 107.086C39.6466 105.515 39.2673 103.944 39.2884 102.375C39.3176 100.782 39.6946 99.3255 40.4195 98.0067C41.1364 96.6719 42.0771 95.4659 43.2416 94.3888C44.4221 93.3037 45.7742 92.3833 47.298 91.6276C49.9926 90.2911 52.7124 89.8115 55.4576 90.1887C58.2187 90.558 60.4772 91.6262 62.2329 93.3934L56.2734 97.8779C54.5647 96.4071 52.5314 96.2564 50.1737 97.4258C48.682 98.1656 47.6142 99.0749 46.9701 100.154C46.3181 101.217 46.3342 102.438 47.0183 103.817C47.3365 104.459 47.8474 104.945 48.5509 105.275C49.2544 105.606 50.1065 105.793 51.1073 105.836C52.116 105.855 53.0769 105.838 53.9899 105.785C54.9109 105.708 55.9641 105.615 57.1494 105.507C58.3429 105.375 59.2559 105.302 59.8885 105.288C61.0175 105.268 62.0303 105.295 62.9268 105.37C63.8233 105.445 64.7595 105.62 65.7355 105.895C66.7035 106.155 67.567 106.526 68.3261 107.009C69.0932 107.467 69.8358 108.098 70.5538 108.901C71.2719 109.704 71.9053 110.659 72.4542 111.766C74.0213 114.926 74.1113 118.029 72.7243 121.075C71.3373 124.121 68.9115 126.503 65.447 128.221C62.0948 129.884 58.7424 130.357 55.3899 129.642C52.0454 128.903 49.369 127.092 47.3606 124.211ZM63.6065 84.6183L92.5254 70.2757L95.3892 76.0499L84.3942 81.5029L98.9039 110.759L92.4561 113.957L77.9464 84.7008L66.4702 90.3925L63.6065 84.6183ZM112.414 70.3641L114.23 84.542L122.578 80.4015L112.414 70.3641ZM112.158 60.5389L142.114 89.3283L134.632 93.0392L126.801 85.4715C126.801 85.4715 123.088 87.313 115.662 90.9961L116.948 101.809L109.466 105.52L104.675 64.2499L112.158 60.5389ZM127.447 52.986L135.627 48.929L147.454 57.3023L147.945 42.8196L156.125 38.7627L154.162 62.6686L162.396 79.2693L155.948 82.4672L147.715 65.8665L127.447 52.986ZM172.275 62.2588L178.21 58.0264C179.414 59.4475 180.82 60.4289 182.428 60.9706C184.027 61.4962 185.709 61.3215 187.474 60.4464C189.254 59.5635 190.415 58.4583 190.955 57.1309C191.512 55.7956 191.453 54.4462 190.776 53.0829C190.41 52.3451 189.928 51.755 189.329 51.3127C188.722 50.8543 188.09 50.548 187.434 50.3938C186.786 50.2155 185.982 50.1249 185.021 50.1217C184.068 50.0946 183.184 50.1238 182.367 50.2092C181.566 50.2867 180.56 50.3755 179.351 50.4757C178.142 50.5759 177.093 50.6365 176.204 50.6577C175.011 50.6698 173.982 50.6305 173.118 50.5396C172.245 50.4327 171.297 50.2134 170.273 49.8818C169.258 49.5263 168.335 48.9548 167.505 48.1674C166.674 47.3801 165.953 46.3689 165.341 45.1339C164.561 43.562 164.182 41.9914 164.203 40.4222C164.232 38.8289 164.609 37.3729 165.334 36.0541C166.051 34.7193 166.992 33.5133 168.156 32.4362C169.336 31.3511 170.689 30.4307 172.212 29.675C174.907 28.3385 177.627 27.8589 180.372 28.2361C183.133 28.6054 185.392 29.6736 187.147 31.4408L181.188 35.9253C179.479 34.4545 177.446 34.3038 175.088 35.4732C173.596 36.213 172.529 37.1223 171.885 38.2011C171.233 39.2639 171.249 40.485 171.933 41.8644C172.251 42.506 172.762 42.992 173.465 43.3226C174.169 43.6532 175.021 43.8401 176.022 43.8833C177.03 43.9026 177.991 43.8857 178.904 43.8326C179.825 43.7555 180.878 43.6629 182.064 43.5546C183.257 43.4224 184.17 43.3492 184.803 43.3353C185.932 43.3149 186.945 43.3422 187.841 43.4172C188.738 43.4921 189.674 43.6673 190.65 43.9427C191.618 44.2021 192.481 44.5732 193.24 45.056C194.008 45.5149 194.75 46.1458 195.468 46.9488C196.186 47.7518 196.82 48.7067 197.369 49.8134C198.936 52.9732 199.026 56.0761 197.639 59.1222C196.252 62.1683 193.826 64.5505 190.361 66.2687C187.009 67.9313 183.657 68.4049 180.304 67.6894C176.96 66.95 174.283 65.1398 172.275 62.2588Z" fill="#1C71DA"/>
</g>
<defs>
<clipPath id="clip0">
<rect width="398" height="404" fill="white" transform="translate(0.656097 398.65) rotate(-89.9009)"/>
</clipPath>
</defs>
</svg>
